<svg xmlns="http://www.w3.org/2000/svg" width="30.621" height="23.832" viewBox="0 0 30.621 23.832"><path d="M27.984,13.706l-.717-1.744L26,8.869A7.112,7.112,0,0,0,19.362,4.5h-8.1A7.112,7.112,0,0,0,4.626,8.869L3.354,11.962l-.717,1.744A3.969,3.969,0,0,0,0,17.409v2.979a3.88,3.88,0,0,0,1.021,2.6v3.356a2.015,2.015,0,0,0,2.041,1.986H5.1a2.015,2.015,0,0,0,2.041-1.986V24.36H23.476v1.986a2.015,2.015,0,0,0,2.041,1.986h2.041A2.015,2.015,0,0,0,29.6,26.346V22.99a3.877,3.877,0,0,0,1.021-2.6V17.409A3.969,3.969,0,0,0,27.984,13.706ZM8.416,10.344A3.063,3.063,0,0,1,11.26,8.472h8.1A3.063,3.063,0,0,1,22.2,10.344l1.271,3.093H7.145l1.271-3.093ZM5.1,20.375a1.981,1.981,0,1,1,0-3.96,3.876,3.876,0,0,1,3.062,2.97C8.166,20.573,6.328,20.375,5.1,20.375Zm20.414,0c-1.225,0-3.062.2-3.062-.99a3.876,3.876,0,0,1,3.062-2.97,1.981,1.981,0,1,1,0,3.96Z" transform="translate(0 -4.5)" fill="#676767"/></svg>