<svg xmlns="http://www.w3.org/2000/svg" width="47.103" height="32.972" viewBox="0 0 47.103 32.972"><path d="M45.727,17.36l-4.306-4.306a4.712,4.712,0,0,0-3.334-1.376h-2.76V4.605A2.353,2.353,0,0,0,32.972,2.25H2.355A2.353,2.353,0,0,0,0,4.605V29.334a5.873,5.873,0,0,0,10.6,3.5,5.873,5.873,0,0,0,10.6-3.5,6.2,6.2,0,0,0-.118-1.178H33.09a5.657,5.657,0,0,0-.118,1.178,5.888,5.888,0,1,0,11.776,0,6.2,6.2,0,0,0-.118-1.178h1.3A1.181,1.181,0,0,0,47.1,26.979V20.687A4.7,4.7,0,0,0,45.727,17.36ZM5.888,31.69a2.355,2.355,0,1,1,2.355-2.355A2.362,2.362,0,0,1,5.888,31.69Zm9.421,0a2.355,2.355,0,1,1,2.355-2.355A2.362,2.362,0,0,1,15.309,31.69ZM35.327,15.2h2.76a1.169,1.169,0,0,1,.832.346l3.187,3.187H35.327ZM38.86,31.69a2.355,2.355,0,1,1,2.355-2.355A2.362,2.362,0,0,1,38.86,31.69Z" transform="translate(0 -2.25)" fill="#676767"/></svg>