<svg xmlns="http://www.w3.org/2000/svg" width="24" height="24" viewBox="0 0 24 24"><path d="M27.167,21.167a15.147,15.147,0,0,1-4.76-.76,1.361,1.361,0,0,0-1.36.32L18.113,23.66a20.06,20.06,0,0,1-8.787-8.787l2.933-2.947a1.28,1.28,0,0,0,.333-1.333,15.147,15.147,0,0,1-.76-4.76A1.337,1.337,0,0,0,10.5,4.5H5.833A1.337,1.337,0,0,0,4.5,5.833,22.665,22.665,0,0,0,27.167,28.5,1.337,1.337,0,0,0,28.5,27.167V22.5A1.337,1.337,0,0,0,27.167,21.167ZM25.833,16.5H28.5a12,12,0,0,0-12-12V7.167A9.327,9.327,0,0,1,25.833,16.5Zm-5.333,0h2.667A6.669,6.669,0,0,0,16.5,9.833V12.5A4,4,0,0,1,20.5,16.5Z" transform="translate(-4.5 -4.5)" fill="#007dc1"/></svg>