<svg xmlns="http://www.w3.org/2000/svg" width="27.048" height="24.042" viewBox="0 0 27.048 24.042"><path d="M26.695,8.333l-6.762,6.386a1.128,1.128,0,0,1-1.9-.819V10.52c-6.789.046-9.653,1.649-7.737,8.046a.752.752,0,0,1-1.174.814,9.039,9.039,0,0,1-3.485-6.732c0-6.759,5.522-8.1,12.4-8.138V1.128a1.128,1.128,0,0,1,1.9-.819l6.762,6.386A1.127,1.127,0,0,1,26.695,8.333ZM18.032,17.8v3.234H3.005V6.011H5.4A.563.563,0,0,0,5.8,5.837,9.154,9.154,0,0,1,8.2,4.068a.563.563,0,0,0-.26-1.063H2.254A2.254,2.254,0,0,0,0,5.259V21.788a2.254,2.254,0,0,0,2.254,2.254H18.783a2.254,2.254,0,0,0,2.254-2.254v-4.17a.563.563,0,0,0-.752-.531,3.373,3.373,0,0,1-1.605.159A.565.565,0,0,0,18.032,17.8Z" transform="translate(0 0)" fill="#007dc1"/></svg>