<svg width="50" height="50" viewBox="0 0 50 50" fill="none" xmlns="http://www.w3.org/2000/svg">
<path d="M25 20.8333C26.1051 20.8333 27.1649 21.2723 27.9463 22.0537C28.7277 22.8351 29.1667 23.8949 29.1667 25C29.1676 25.9833 28.8208 26.9353 28.1875 27.6875L34.7917 45.8333H30.3542L25 31.1042L19.6458 45.8333H15.2083L21.8125 27.6875C21.1792 26.9353 20.8324 25.9833 20.8333 25C20.8333 23.8949 21.2723 22.8351 22.0537 22.0537C22.8351 21.2723 23.8949 20.8333 25 20.8333V20.8333ZM25 16.6667C22.7899 16.6667 20.6703 17.5446 19.1074 19.1074C17.5446 20.6702 16.6667 22.7899 16.6667 25C16.6667 26.0417 16.875 27.0833 17.25 28.0417L15.4167 33.0417C13.533 30.7852 12.5008 27.9393 12.5 25C12.5 21.6848 13.817 18.5054 16.1612 16.1612C18.5054 13.817 21.6848 12.5 25 12.5C28.3152 12.5 31.4946 13.817 33.8388 16.1612C36.183 18.5054 37.5 21.6848 37.5 25C37.5 28.0625 36.3958 30.8542 34.5833 33.0417L32.75 28.0417C33.125 27.0833 33.3333 26.0417 33.3333 25C33.3333 22.7899 32.4554 20.6702 30.8926 19.1074C29.3298 17.5446 27.2101 16.6667 25 16.6667V16.6667ZM25 8.33333C20.5797 8.33333 16.3405 10.0893 13.2149 13.2149C10.0893 16.3405 8.33334 20.5797 8.33334 25C8.33334 29.9167 10.4167 34.375 13.8333 37.375L12.3333 41.5417C9.79399 39.596 7.73655 37.092 6.32036 34.2235C4.90418 31.355 4.16726 28.199 4.16667 25C4.16667 19.4747 6.36161 14.1756 10.2686 10.2686C14.1756 6.3616 19.4747 4.16667 25 4.16667C27.7359 4.16667 30.445 4.70554 32.9726 5.75251C35.5002 6.79948 37.7968 8.33406 39.7314 10.2686C41.6659 12.2032 43.2005 14.4998 44.2475 17.0274C45.2945 19.555 45.8333 22.2641 45.8333 25C45.8333 31.7292 42.625 37.7292 37.6667 41.5417L36.1667 37.375C39.5833 34.375 41.6667 29.9167 41.6667 25C41.6667 20.5797 39.9107 16.3405 36.7851 13.2149C33.6595 10.0893 29.4203 8.33333 25 8.33333V8.33333Z" fill="black"/>
</svg>
