<svg xmlns="http://www.w3.org/2000/svg" width="78" height="64" viewBox="0 0 78 64"><g transform="translate(-324 -307)"><rect width="78" height="64" rx="30" transform="translate(324 307)" fill="#fff"/><path d="M20.52,25C27,25,32.246,19.4,32.246,12.5S27,0,20.52,0,8.794,5.6,8.794,12.5,14.043,25,20.52,25ZM29.3,28.184,24.917,46.875,21.986,33.594l2.931-5.469H16.123l2.931,5.469L16.123,46.875,11.744,28.184C5.212,28.516,0,34.209,0,41.25v4.062A4.55,4.55,0,0,0,4.4,50H36.643a4.55,4.55,0,0,0,4.4-4.687V41.25c0-7.041-5.212-12.734-11.744-13.066Z" transform="translate(342 314)"/></g></svg>